<?xml version="1.0" encoding="UTF-8"?>
<svg width="22px" height="21px" viewBox="0 0 22 21" version="1.1" xmlns="http://www.w3.org/2000/svg" xmlns:xlink="http://www.w3.org/1999/xlink">
    <!-- Generator: Sketch 55.2 (78181) - https://sketchapp.com -->
    <title>icon-refresh@2x</title>
    <desc>Created with Sketch.</desc>
    <g id="方案二" stroke="none" stroke-width="1" fill="none" fill-rule="evenodd">
        <g id="共享钱包-添加-OEP-4-资产-方案二" transform="translate(-166.000000, -133.000000)" fill="#196BD8" fill-rule="nonzero">
            <g id="编组-6" transform="translate(103.500000, 132.500000)">
                <g id="Group-11" transform="translate(62.500000, 0.000000)">
                    <g id="编组-11" transform="translate(0.500000, 0.500000)">
                        <path d="M14.4736148,9.18111725 L16.4153849,9.01123438 L13.9645289,13.2874905 L10.8083429,9.50178699 L12.8104309,9.32662698 C12.6786901,7.51173406 11.4163302,6.18912547 9.57025322,6.18912547 C7.55443638,6.18912547 5.92029395,7.8232679 5.92029395,9.83908474 C5.92029395,11.8549016 7.55443638,13.489044 9.57025322,13.489044 C9.82763273,13.489044 10.0707896,13.4633353 10.2993434,13.4141682 L10.5679762,15.0192297 C10.2495789,15.0796923 9.91641981,15.1110938 9.57025322,15.1110938 C6.65860299,15.1110938 4.29824412,12.750735 4.29824412,9.83908474 C4.29824412,6.92743451 6.65860299,4.56707564 9.57025322,4.56707564 C12.2681195,4.56707564 14.2228598,6.47438535 14.4736148,9.18111725 Z" id="形状结合" transform="translate(10.356814, 9.839085) rotate(-85.000000) translate(-10.356814, -9.839085) "></path>
                    </g>
                </g>
            </g>
        </g>
    </g>
</svg>