<?xml version="1.0" encoding="UTF-8"?>
<svg width="80px" height="80px" viewBox="0 0 80 80" version="1.1" xmlns="http://www.w3.org/2000/svg" xmlns:xlink="http://www.w3.org/1999/xlink">
    <title>icon</title>
    <g id="Page-1" stroke="none" stroke-width="1" fill="none" fill-rule="evenodd">
        <g id="节点注册成功" transform="translate(-542.000000, -175.000000)" fill="#0CBF92" fill-rule="nonzero">
            <g id="icon" transform="translate(542.000000, 175.000000)">
                <path d="M40.5222182,0.00249869316 C26.0992565,-0.157592713 12.702307,7.38510144 5.44384587,19.7521764 C-1.81461529,32.1192514 -1.81461529,47.4024807 5.44384587,59.7695556 C12.702307,72.1366306 26.0992565,79.6793248 40.5222182,79.5192334 C62.4045175,79.1757214 79.9621896,61.477415 79.9621896,39.7633539 C79.9621896,18.0492928 62.4045175,0.350986388 40.5222182,0.00747439772 L40.5222182,0.00249869316 Z M57.9097119,31.669637 L38.4094137,51.0253516 C37.3306516,52.0896121 35.5881162,52.0896121 34.5093541,51.0253516 L22.8091751,39.4126991 C22.1117978,38.7214633 21.8390681,37.7135954 22.0937208,36.7687493 C22.3483734,35.8239033 23.0917206,35.0856237 24.0437506,34.8320135 C24.9957806,34.5784032 26.0118575,34.8479916 26.7092348,35.5392274 L36.4613398,45.2151441 L54.0135641,27.8000465 C55.0905358,26.7325604 56.8357763,26.7334293 57.9116678,27.8019872 C58.9875593,28.870545 58.9866836,30.6021508 57.9097119,31.669637 L57.9097119,31.669637 Z" id="形状"></path>
            </g>
        </g>
    </g>
</svg>