<?xml version="1.0" standalone="no"?><!DOCTYPE svg PUBLIC "-//W3C//DTD SVG 1.1//EN" "http://www.w3.org/Graphics/SVG/1.1/DTD/svg11.dtd"><svg t="1535536808220" class="icon" style="" viewBox="0 0 1024 1024" version="1.1" xmlns="http://www.w3.org/2000/svg" p-id="981" xmlns:xlink="http://www.w3.org/1999/xlink" width="200" height="200"><defs><style type="text/css"></style></defs><path d="M576 160H448c-17.664 0-32-14.336-32-32s14.336-32 32-32h128c17.696 0 32 14.336 32 32s-14.304 32-32 32z m242.976 186.272l35.648-35.648c12.512-12.512 12.512-32.736 0-45.248s-32.736-12.512-45.248 0l-32.896 32.896C707.52 232.608 614.496 192 512 192c-211.744 0-384 172.256-384 384s172.256 384 384 384 384-172.256 384-384c0-86.176-28.896-165.568-77.024-229.728zM544 894.368V864c0-17.696-14.336-32-32-32s-32 14.304-32 32v30.368C329.056 879.328 208.672 758.944 193.632 608H224c17.664 0 32-14.304 32-32s-14.336-32-32-32h-30.368C208.672 393.056 329.056 272.672 480 257.632V288c0 17.664 14.336 32 32 32s32-14.336 32-32v-30.368C694.944 272.704 815.328 393.056 830.368 544H800c-17.696 0-32 14.304-32 32s14.304 32 32 32h30.368C815.328 758.944 694.944 879.328 544 894.368z m108-471.36l-160 128c-13.824 11.072-16.032 31.2-4.992 44.992 6.336 7.904 15.616 12 24.992 12 7.008 0 14.08-2.272 19.968-7.008l160-128c13.792-11.04 16.032-31.168 4.992-44.96-11.008-13.824-31.104-16.096-44.96-5.024z" fill="#333333" p-id="982"></path></svg>