<?xml version="1.0" encoding="UTF-8"?>
<svg width="22px" height="22px" viewBox="0 0 22 22" version="1.1" xmlns="http://www.w3.org/2000/svg" xmlns:xlink="http://www.w3.org/1999/xlink">
    <!-- Generator: Sketch 61.2 (89653) - https://sketch.com -->
    <title>icon-add@2x</title>
    <desc>Created with Sketch.</desc>
    <g id="页面-1" stroke="none" stroke-width="1" fill="none" fill-rule="evenodd">
        <g id="admin/voting-topics" transform="translate(-1039.000000, -22.000000)" fill="#196BD8">
            <g id="icon-add" transform="translate(1039.000000, 22.000000)">
                <g id="编组-7" transform="translate(0.500000, 0.500000)">
                    <path d="M10.5,0.5 C16.0228475,0.5 20.5,4.9771525 20.5,10.5 C20.5,16.0228475 16.0228475,20.5 10.5,20.5 C4.9771525,20.5 0.5,16.0228475 0.5,10.5 C0.5,4.9771525 4.9771525,0.5 10.5,0.5 Z M11.6188363,5.31832059 L9.38116374,5.31832059 L9.38207668,9.38032059 L5.31792332,9.38116374 L5.31792332,11.6188363 L9.38207668,11.6183206 L9.38116374,15.6816794 L11.6188363,15.6816794 L11.6190767,11.6183206 L15.6820767,11.6188363 L15.6820767,9.38116374 L11.6190767,9.38032059 L11.6188363,5.31832059 Z" id="形状结合"></path>
                </g>
            </g>
        </g>
    </g>
</svg>